<svg version="1" xmlns="http://www.w3.org/2000/svg" width="341.333" height="341.333" viewBox="0 0 256.000000 256.000000"><path d="M0 128v128h256V0H0v128zM133.8 22c6.5 0 8.2 2.3 8.2 11.1 0 5.6-.4 7.5-1.7 8.6-1 .8-1.3 1.2-.6.9.6-.4 1.4-.2 1.8.4.3.5-.3 1-1.4 1-1.3 0-1.9.5-1.5 1.4.3.8.1 1.7-.4 2-.5.3-1 0-.9-.7 0-.6-.1-3.4-.1-6.2-.2-6.2-.4-6-10.5 10.3-6.9 11-7.5 12.5-6.2 13.8.8.9 1.5 1.9 1.5 2.3 0 1.6-2.6 3-4.6 2.5-1.7-.5-3.1 1.2-8.3 9.8-3.5 5.7-6.7 10.4-7.2 10.6-.5.2-.9.8-.9 1.3 0 1.9-6.7 7.9-8.9 7.9-1.5 0-3.2-1.6-5.8-5.8-2-3.1-5.5-8.7-7.9-12.4L74.1 74l-11.4 8C43.9 95.2 44 95.4 44 56.5c0-31.3.2-32.3 5.4-34.6 1.3-.6 17.6-.7 41.1-.4 21.5.3 40.9.5 43.3.5zm-62.3 99.4c3.5 1.5 6.5 5.9 6.5 9.6 0 1.6-.6 2-3.5 2-2.7 0-3.5-.4-3.5-1.8 0-4.2-7-6-9-2.3-1.2 2.3-1.3 21-.1 22.9.5.8 2.3 1.2 4.7 1 3.4-.3 3.9-.6 4.2-3.1.3-2.4.8-2.7 3.9-2.7 3.6 0 3.6 0 3 3.7-.9 5.7-5.4 9.3-11.5 9.3-9.4 0-12.2-4.7-12.2-20.1 0-11.7 1.4-15.9 6.3-18.3 4-1.9 6.8-2 11.2-.2zm55 .2c5.1 2.4 6.5 6.5 6.5 18.3 0 15.4-2.8 20.1-12.2 20.1-3.9 0-5.4-.6-8-2.9l-3.3-2.9-.3-12.5c-.4-14.3.7-17.9 6.1-20.2 4.2-1.9 7.2-1.8 11.2.1zm31-.1c3.4 1.7 5.3 4.5 5.7 8.5.3 2.1-.2 2.5-2.7 2.8-2.6.2-3.2-.2-4.2-2.8-1-2.7-1.6-3.1-4.4-2.8-3.8.4-5.9 3-4.3 5.5.6 1 3.5 3 6.5 4.4 7.6 3.7 9.4 6 9.4 12.1 0 4.3-.4 5.3-3.3 7.9-2.6 2.3-4.2 2.9-7.8 2.9-7.7 0-12.4-4-12.4-10.5 0-2.2.5-2.5 3.4-2.5 3 0 3.5.3 3.8 2.7.3 2.5.7 2.8 4.5 3.1 3.8.3 4.3.1 4.9-2.3.8-3.3-.9-5.3-6.6-7.7-8.8-3.8-11.6-9-8.6-16.2 2.4-5.9 9.6-8.1 16.1-5.1zm-115.6.9c4.2 2.2 5.1 5.5 5.1 18.4 0 9-.4 12.3-1.6 14-2.6 3.7-6.7 5.2-14.4 5.2h-7v-39h7.5c4.6 0 8.7.6 10.4 1.4zm61.8-.2c-9.9 23.6-15.4 33.8-17.1 32.1-.3-.4-.6 0-.6.7s-.2 1.1-.5.8c-.4-.4 4-11.5 13.2-33.6.3-.6 1.6-1.2 3-1.2 1.6 0 2.3.4 2 1.2zm95.1 66.7l7.2 4.2v8.4c0 5.4-.4 8.5-1.1 8.5-.6 0-4.2-1.8-8-4l-6.9-4.1v-9c0-5 .3-8.8.8-8.6.4.2 4 2.3 8 4.6zm23 13.4c1.4 1.1 1.7 17.7.3 17.7-.5 0-4.1-1.8-8-4.1l-7.1-4.1v-18l6.8 3.8c3.7 2 7.3 4.1 8 4.7zm18 .4l-.3 8.8-7 4.2c-3.8 2.3-7.3 4.3-7.7 4.3-.5 0-.8-3.9-.8-8.8v-8.7l7.3-4.2c3.9-2.4 7.6-4.3 8-4.3.4 0 .6 3.9.5 8.7zm-24.3 15.6l7 4.2.3 8.8c.1 4.8 0 8.7-.3 8.7s-3.9-1.9-8-4.3l-7.5-4.2v-8.8c0-4.8.3-8.7.8-8.7.4 0 3.9 2 7.7 4.3z"/><path d="M61.5 29.3c1.1.7 9.6 5.7 18.8 11.1l16.8 9.9 8.2-5.6c4.5-3.1 11.8-8.1 16.2-11.1l7.9-5.6H94.5c-29.2 0-34.6.2-33 1.3zM58 35.4c0 .5 8.2 13.9 16.6 27.4l1.5 2.3 7.4-5.2c4.1-2.8 7.5-5.3 7.5-5.5 0-.3-12.9-8-28.2-16.8-2.7-1.6-4.8-2.5-4.8-2.2zM50 59.4c0 12.4.4 22.6.8 22.6 1.3 0 18.9-12.4 19-13.5.2-1.1-17.6-30.3-19-31.1-.4-.3-.8 9.6-.8 22zM115.6 44.9c-6.1 4.3-11.1 8.2-11.3 8.7-.3.9 8 6.4 9.5 6.4.6-.1 12.9-19.5 14-22.2.8-1.8-1.8-.3-12.2 7.1zM88.7 63.7c-4.3 3.1-8.1 6.1-8.3 6.8-.4 1 10.1 19.4 12.4 21.7 1.1 1.1 17.5-25 16.8-26.7-.4-1.2-11-7.5-12.3-7.4-.5 0-4.3 2.5-8.6 5.6zM119.6 67.7c-.6 1.4-.5 1.5.5.6.7-.7 1-1.5.7-1.8-.3-.3-.9.2-1.2 1.2zM117.2 128.2c-1.3 1.3-1.7 20.2-.6 23.2.8 2.2 8 2.2 8.8 0 1-2.6.7-20.4-.4-22.5-1.2-2.2-5.9-2.6-7.8-.7zM31 140.4V153h3.3c5.6 0 5.8-.5 5.5-13.1l-.3-11.4-4.2-.3-4.3-.3v12.5z"/></svg>